<svg version="1.1" id="Layer_1" xmlns="http://www.w3.org/2000/svg" xmlns:xlink="http://www.w3.org/1999/xlink" x="0px" y="0px"
	 width="100%" viewBox="0 0 1024 1024" enable-background="new 0 0 1024 1024" xml:space="preserve">
<path fill="#000000" opacity="1.000000" stroke="none" 
	d="
M624.909302,467.967834 
	C622.062866,452.218994 617.000305,437.622498 610.698059,423.422821 
	C610.292664,422.509338 609.879761,421.598572 609.503601,420.672974 
	C608.824524,419.002045 607.619202,417.199066 609.413391,415.638123 
	C611.115601,414.157227 612.833740,415.181549 614.448242,416.165680 
	C624.120239,422.061279 633.754639,428.020569 643.486267,433.816254 
	C673.829163,451.886932 703.072571,471.697723 733.058960,490.332092 
	C737.297607,492.966034 741.366516,495.873871 745.617432,498.486786 
	C750.339966,501.389557 750.441162,503.310822 745.581482,506.270782 
	C731.069824,515.109680 716.484924,523.828430 701.980652,532.679260 
	C675.389893,548.905518 648.839905,565.198425 622.261536,581.444885 
	C619.849487,582.919312 617.367310,584.281128 614.894104,585.652710 
	C613.327087,586.521667 611.680603,587.914429 609.960388,586.106567 
	C608.412292,584.479553 609.210876,582.662048 610.041504,580.994751 
	C612.723450,575.611511 614.699341,569.953430 616.693115,564.296326 
	C620.521912,553.432861 623.397949,542.338806 625.064087,530.932068 
	C625.261902,529.578186 625.517639,528.354065 624.642029,527.124878 
	C620.198181,520.886902 615.801697,514.615295 611.360840,508.375244 
	C609.105042,505.205597 606.170532,503.933899 602.239319,504.928040 
	C598.355591,505.910187 598.377319,509.054321 597.987427,511.998901 
	C594.986755,534.657654 585.404785,553.952026 568.474426,569.422119 
	C565.122131,572.485291 564.802856,575.201172 567.713806,578.807312 
	C575.562561,588.530457 583.216675,598.411499 590.886719,608.277527 
	C592.310486,610.108887 594.209778,610.997559 596.268494,611.701233 
	C602.566833,613.854065 608.855835,616.037842 615.190613,618.078857 
	C618.071594,619.007080 620.171814,620.414124 621.049561,623.555115 
	C624.364563,635.416809 627.812866,647.241394 631.225464,659.075684 
	C631.659302,660.579956 631.950439,662.119934 630.618469,663.246277 
	C629.176697,664.465515 627.770874,663.479309 626.484131,662.745850 
	C616.497925,657.053833 606.421936,651.508118 596.598999,645.546021 
	C592.442749,643.023315 590.343628,643.964417 587.854431,647.842285 
	C563.645691,685.557251 539.286804,723.175842 514.921204,760.789795 
	C513.354370,763.208618 513.254150,764.589417 515.497070,767.093140 
	C523.908020,776.482178 529.767822,787.437500 533.289856,799.585388 
	C533.353760,799.805725 533.027649,800.139160 532.608093,800.956421 
	C529.273682,797.878845 525.777283,795.229858 523.137573,791.633362 
	C520.251831,787.701599 518.879028,787.635864 516.395020,791.951599 
	C513.750488,796.545959 510.860413,801.085693 510.072968,806.531799 
	C509.918823,807.597961 509.238037,808.587952 508.219940,810.971008 
	C506.366058,801.720703 502.698090,794.802856 497.580566,788.512939 
	C494.113373,789.668762 492.503021,792.696411 489.866791,794.349731 
	C488.368347,795.289612 486.829987,797.263916 485.105560,795.520264 
	C483.463135,793.859497 485.160095,792.064392 486.181549,790.651978 
	C490.574829,784.577209 495.100525,778.598267 499.521210,772.543030 
	C500.979156,770.545959 500.232239,768.025513 500.560608,766.127441 
	C501.904968,758.356506 496.665924,753.948792 493.437988,748.570007 
	C489.928833,742.722595 485.834625,737.228210 482.048981,731.544312 
	C464.042877,704.509094 446.055237,677.461487 428.060425,650.418640 
	C423.309814,643.279419 423.248474,643.172302 415.616394,647.442322 
	C406.914673,652.310669 398.336700,657.400085 389.699707,662.384399 
	C388.229553,663.232727 386.643280,664.109741 385.114899,662.707397 
	C383.789581,661.491333 384.436188,659.905151 384.851105,658.478516 
	C388.056458,647.457581 391.374115,636.468140 394.450836,625.411621 
	C395.356903,622.155579 397.135223,620.152771 400.305634,619.283813 
	C415.264740,615.183655 427.625946,607.685120 435.674103,593.785828 
	C438.820587,588.351746 443.223724,583.644226 447.066071,578.614624 
	C449.522095,575.399719 449.222321,572.676270 446.075256,569.954834 
	C427.627869,554.002991 418.015472,533.578796 415.778534,509.486542 
	C415.620331,507.782349 415.577850,505.932800 413.484528,505.561127 
	C410.847870,505.092834 407.868774,504.661591 406.033936,507.087646 
	C400.514893,514.384888 395.216461,521.849548 389.874664,529.279602 
	C389.126129,530.320740 389.660645,531.497131 389.868652,532.651978 
	C392.836151,549.125000 397.921600,564.932312 404.641907,580.241211 
	C405.461121,582.107300 407.339050,584.195862 405.102356,586.125610 
	C402.932648,587.997620 401.000610,586.042664 399.250824,584.976562 
	C372.648895,568.769165 346.117218,552.446106 319.486938,536.285583 
	C302.399017,525.915771 285.173492,515.772705 268.016724,505.516174 
	C263.800995,502.995972 263.790497,501.067200 268.058594,498.378296 
	C294.272186,481.863831 320.535461,465.428009 346.714417,448.858856 
	C363.455475,438.263123 380.075653,427.476593 396.762360,416.794800 
	C398.702637,415.552765 400.835510,413.684753 403.115021,415.388977 
	C405.404938,417.101044 403.681091,419.410492 402.911560,421.306427 
	C396.115479,438.051422 391.742371,455.453918 388.573486,473.199951 
	C388.184143,475.380432 388.780365,477.029633 390.074677,478.726959 
	C395.023163,485.216217 399.955261,491.721283 404.727173,498.340332 
	C406.805145,501.222687 409.499573,501.058990 412.318542,500.435547 
	C415.183472,499.802002 415.538788,497.406891 415.627197,494.965912 
	C416.608795,467.862122 426.307312,444.726562 446.895691,426.613007 
	C449.593872,424.239166 449.671783,422.096039 447.560638,419.349792 
	C440.961090,410.764984 434.494904,402.077606 427.892334,393.495148 
	C426.791443,392.064117 425.412292,390.741760 423.913849,389.739960 
	C416.889709,385.044006 413.158142,386.389404 410.670837,394.377655 
	C410.374329,395.329834 410.151215,396.306641 409.929504,397.280090 
	C408.536285,403.397247 406.058228,407.554260 398.528168,407.891205 
	C384.207672,408.532013 373.312195,417.536896 361.911560,424.858582 
	C324.488922,448.891998 287.239502,473.195221 249.801819,497.205048 
	C246.012756,499.635071 244.233170,502.834869 243.043182,507.426514 
	C246.658295,511.188965 251.754089,513.761292 256.403687,516.835205 
	C288.777679,538.238159 321.488831,559.143616 353.512268,581.055664 
	C361.619202,586.602844 370.566986,586.803833 379.054535,589.673096 
	C380.150787,590.043701 381.552032,590.133057 382.279694,590.874817 
	C388.189484,596.899231 391.693878,604.715088 398.300995,610.957336 
	C390.336151,614.515991 382.798065,604.659546 376.056000,612.401611 
	C372.997162,610.699036 371.232849,607.861206 370.047607,604.775269 
	C366.663574,595.964783 361.227020,589.500427 352.945404,584.288940 
	C315.866730,560.955811 279.527374,536.470947 243.250839,511.906586 
	C239.477203,509.351318 236.610519,509.286316 233.903183,512.950195 
	C227.781281,521.235107 218.477982,525.463501 210.488739,531.364380 
	C210.051270,531.687439 209.300278,531.586060 208.316833,531.742432 
	C208.157669,527.630432 210.511444,524.982300 212.598801,522.398254 
	C215.724686,518.528503 215.056168,515.627991 211.228470,512.767639 
	C204.689590,507.881348 197.812408,504.082672 189.308502,504.347046 
	C188.090179,504.384949 186.586868,504.754639 185.723572,502.846405 
	C187.164597,501.014832 189.264786,501.679749 191.086639,501.688477 
	C198.022217,501.721680 204.103699,499.529663 209.576492,495.266602 
	C212.335403,493.117554 213.068390,491.135468 210.672791,488.228943 
	C208.465347,485.550690 206.944244,482.445160 205.951233,478.969940 
	C208.619080,477.261505 210.221848,479.133850 211.868683,480.276825 
	C218.983582,485.214874 226.061737,490.206421 233.122620,495.221649 
	C237.750183,498.508423 241.804382,498.877777 247.072052,495.432343 
	C288.337311,468.442047 329.672119,441.549652 371.369507,415.235657 
	C379.771484,409.933441 385.987976,404.256470 388.143097,394.365387 
	C389.062927,390.143860 391.368225,386.754913 396.948273,387.748016 
	C399.129974,388.136292 401.815582,387.436890 402.636139,384.705322 
	C403.432617,382.054077 401.147095,381.321564 399.380859,380.460175 
	C397.367554,379.478333 396.559845,377.656860 396.014069,375.725433 
	C392.846252,364.514832 389.722656,353.291595 386.630951,342.059753 
	C386.163605,340.361877 385.104523,338.367920 387.178802,337.071442 
	C389.096283,335.872955 390.598602,337.415741 392.159058,338.338440 
	C399.900024,342.915710 407.639008,347.497009 415.418732,352.007843 
	C420.741028,355.093842 427.006134,357.374359 425.426697,366.040192 
	C429.530212,362.635376 431.400452,358.582397 433.734619,354.926605 
	C453.904877,323.335907 473.991302,291.692108 494.952179,260.614258 
	C498.211823,255.781326 501.019135,250.624435 504.504120,245.967957 
	C507.689270,241.712097 507.046509,238.394958 503.330383,235.136215 
	C497.922058,230.393570 494.552307,224.310730 492.021667,217.707886 
	C491.392883,216.067291 490.248901,214.262222 492.129913,212.668915 
	C494.004852,211.080734 495.586151,212.308746 497.034668,213.430817 
	C500.025879,215.747864 501.933105,214.403351 503.412445,211.637772 
	C505.303650,208.102203 506.837646,204.417282 507.650696,200.470978 
	C507.943634,199.048920 507.760986,197.405518 509.964600,196.696915 
	C512.816772,199.963715 512.684082,204.701813 515.107178,208.218338 
	C515.759338,209.164749 516.074158,210.336975 516.609558,211.371490 
	C519.993469,217.910126 520.862915,218.022079 527.202148,214.615036 
	C529.606567,213.322815 532.366089,209.366486 534.878784,212.071289 
	C537.462708,214.852768 533.286072,217.314713 531.732788,219.533585 
	C527.535034,225.530273 522.944702,231.259323 518.363159,236.976776 
	C516.504272,239.296478 516.478210,241.186981 518.185181,243.649353 
	C541.631775,277.472687 562.395203,313.053131 585.756958,346.934418 
	C586.796692,348.442352 587.761230,350.004639 588.709595,351.572571 
	C592.387268,357.652985 593.793152,358.016876 599.722961,354.322235 
	C608.332947,348.957764 616.913818,343.546112 625.560913,338.242523 
	C627.320679,337.163177 629.238708,335.182007 631.430969,336.716919 
	C633.768738,338.353668 632.148560,340.683990 631.598328,342.666901 
	C628.483215,353.894104 625.242188,365.086914 622.208496,376.335754 
	C621.576355,378.679901 620.448730,380.209167 618.214905,380.984253 
	C617.742920,381.148010 617.276001,381.366302 616.788696,381.439850 
	C592.487976,385.108948 582.017273,405.113525 568.922180,421.997192 
	C566.912964,424.587738 567.703613,427.016510 569.952515,429.072937 
	C579.253235,437.577698 585.216553,448.289246 590.459412,459.549164 
	C595.248962,469.835602 597.162964,480.763763 598.353577,491.886993 
	C599.117432,499.023926 602.125671,501.598541 607.375793,499.338287 
	C609.106018,498.593414 610.294006,497.168121 611.384460,495.669434 
	C615.792358,489.611450 620.212036,483.562103 624.625183,477.507935 
	C626.781494,474.549805 625.554565,471.453247 624.909302,467.967834 
M521.966675,719.404663 
	C519.256409,724.754272 516.650330,730.160461 513.788269,735.427612 
	C512.518494,737.764343 512.426819,741.748352 508.923431,741.626953 
	C505.615723,741.512268 506.054657,737.594604 504.877380,735.363403 
	C491.587891,710.177612 478.384033,684.946594 465.105652,659.754883 
	C458.041077,646.352051 450.820831,633.031006 443.818604,619.596008 
	C442.821686,617.683289 440.951752,615.314514 442.925568,613.144165 
	C445.080231,610.774841 447.286255,613.042419 449.241241,613.955139 
	C457.847839,617.972839 466.516785,621.754517 475.680542,624.410156 
	C480.883881,625.918091 485.310638,625.764160 489.537170,621.916992 
	C492.601562,619.127563 496.053528,616.706543 499.553680,614.466614 
	C504.756989,611.136475 506.533997,606.627686 506.243896,600.515869 
	C506.014771,595.688293 504.181458,593.612610 499.488495,593.227966 
	C485.489838,592.080627 472.396545,587.917969 460.362640,580.660522 
	C456.257599,578.184814 453.212402,578.364014 450.134338,582.438049 
	C443.710907,590.939819 437.083496,599.298584 430.256683,607.479797 
	C426.911987,611.488037 424.929535,615.831360 424.500031,620.963135 
	C424.111359,625.607361 423.742859,630.253479 423.318512,634.894409 
	C423.125916,637.000427 423.806641,638.703186 425.009064,640.451538 
	C432.372040,651.157593 439.682770,661.900818 446.899200,672.706238 
	C465.864838,701.104004 484.748871,729.556213 503.728607,757.944519 
	C506.832733,762.587341 509.582001,762.492981 512.910950,757.927429 
	C513.891296,756.582886 514.755554,755.152954 515.658997,753.753113 
	C538.063599,719.037354 560.207031,684.148376 583.047852,649.722107 
	C588.905334,640.893494 592.387878,632.394104 590.114136,621.856628 
	C589.325195,618.200134 590.237793,614.304749 587.503479,610.942505 
	C579.410156,600.990723 571.468872,590.912170 563.632507,580.756409 
	C561.255859,577.676270 559.108093,577.149658 555.670349,579.208069 
	C544.121277,586.123291 531.773193,590.896301 518.258728,592.342163 
	C515.301270,592.658630 511.685425,593.049561 511.375580,596.835876 
	C510.998535,601.443665 509.184753,606.553101 513.596985,610.424988 
	C519.376587,615.496826 525.963623,619.447144 532.287415,623.765747 
	C534.543152,625.306213 536.728760,625.517212 539.347229,624.811584 
	C548.548218,622.332153 557.312500,618.734741 566.038879,614.976929 
	C568.305725,614.000793 571.011963,611.297424 573.275269,613.825928 
	C575.407837,616.208374 572.748840,618.810791 571.675476,621.084595 
	C556.099426,654.082031 539.250000,686.437439 521.966675,719.404663 
M431.081543,365.542389 
	C425.614807,373.220673 424.667084,382.243408 429.020477,387.973206 
	C436.477051,397.787415 444.149048,407.437927 451.610657,417.248383 
	C453.475281,419.700073 455.315338,420.358643 457.923706,418.583038 
	C470.202393,410.224518 483.862488,405.909973 498.589294,404.693451 
	C501.922119,404.418091 503.487671,402.518585 503.822083,399.147339 
	C504.215149,395.184265 502.643585,392.475739 499.520691,390.257812 
	C494.111694,386.416199 487.911652,383.761353 483.026367,379.129608 
	C481.289795,377.483154 479.254028,377.651794 476.969910,378.243439 
	C468.236053,380.505676 459.827881,383.593781 451.590027,387.256531 
	C449.218018,388.311157 446.377350,390.907654 443.889709,388.047363 
	C441.763153,385.602203 443.942932,382.981628 445.083954,380.670624 
	C455.478546,359.617310 465.824463,338.538788 476.399689,317.576172 
	C484.949738,300.627899 493.784790,283.823212 502.519806,266.968536 
	C504.684967,262.790741 506.740875,262.717682 509.195496,266.705383 
	C510.416931,268.689667 511.560303,270.727142 512.643311,272.790741 
	C531.837463,309.364807 550.923096,345.994904 569.408569,382.934357 
	C570.232788,384.581390 571.435181,386.267181 570.047180,388.017181 
	C568.471802,390.003357 566.432495,389.115753 564.552979,388.370667 
	C558.048950,385.792236 551.496033,383.325958 545.069641,380.565674 
	C536.441040,376.859467 528.472473,376.564392 521.307373,383.787292 
	C519.707336,385.400238 517.393372,386.290253 515.462524,387.593628 
	C513.256958,389.082397 510.985138,390.520020 509.515503,392.848450 
	C506.301727,397.940308 508.232391,404.201874 513.529236,404.513855 
	C529.955933,405.481476 544.548096,411.769714 558.675598,419.451569 
	C561.871338,421.189301 563.900635,420.561798 565.943237,417.945648 
	C570.863525,411.643890 575.449036,405.016846 580.906616,399.214233 
	C588.319458,391.332764 592.601685,382.656982 592.706421,371.605927 
	C592.754822,366.497711 591.974182,362.287964 589.136719,358.056000 
	C578.759766,342.579285 568.550293,326.988831 558.404419,311.359009 
	C544.889648,290.539337 531.508972,269.632660 518.017151,248.798050 
	C516.905640,247.081696 516.060669,244.837433 513.743408,244.752762 
	C510.892761,245.619781 512.212708,249.944519 509.278748,249.837158 
	C505.830170,249.710968 504.603821,252.035294 503.202637,254.194717 
	C479.263794,291.088409 455.371887,328.012512 431.081543,365.542389 
M540.229919,415.297791 
	C518.116699,405.855377 495.817078,405.813568 473.698578,414.840454 
	C454.243866,422.780243 439.181000,435.894348 429.568970,454.890961 
	C427.612579,458.757477 427.993622,461.215454 432.245758,463.238800 
	C437.253693,465.621857 442.461029,467.225952 447.760742,468.646027 
	C459.722107,471.851166 472.298706,472.814331 483.443909,479.020355 
	C487.065857,481.037201 491.460175,481.098724 495.595612,481.547974 
	C499.514160,481.973724 502.694214,480.852997 505.108093,477.438293 
	C509.794861,470.808472 516.361206,466.702759 523.967407,464.136139 
	C527.922974,462.801361 531.809021,462.648865 533.982788,466.835266 
	C535.787170,470.310242 537.485840,469.489410 539.780090,467.694092 
	C545.424683,463.277039 548.766479,457.623505 549.734009,450.457947 
	C550.422607,445.358246 551.283264,440.258118 552.470886,435.254028 
	C555.655029,421.837189 555.741455,421.857178 542.808350,416.301392 
	C542.196533,416.038544 541.575317,415.797607 540.229919,415.297791 
M527.280396,586.776733 
	C542.567566,583.225708 555.977783,575.986267 567.209167,565.163818 
	C595.040649,538.345398 602.685120,495.302704 586.350098,460.046082 
	C581.964355,450.580017 576.469360,441.931641 569.031677,434.580048 
	C567.866699,433.428528 566.624084,431.948334 564.750366,432.630798 
	C562.802246,433.340332 563.123108,435.306091 562.953857,436.924805 
	C561.804260,447.917755 560.060913,458.691345 553.482849,468.081146 
	C551.456604,470.973511 550.088928,474.586273 551.590210,478.023468 
	C553.508606,482.415466 554.853271,486.435486 550.554138,489.980896 
	C551.845215,491.791290 553.291260,492.223602 554.648804,492.815704 
	C556.957642,493.822754 558.483521,495.518982 558.647705,498.096100 
	C558.801636,500.511719 557.125427,501.625977 555.146057,502.378113 
	C552.716980,503.301117 552.246826,505.268066 552.084167,507.581085 
	C551.933289,509.726837 550.837158,511.445343 548.609436,511.951691 
	C546.345459,512.466248 544.811890,511.111786 543.561890,509.446625 
	C542.966187,508.653137 542.511597,507.751984 542.010498,506.889557 
	C539.717163,502.942719 533.927612,500.601196 529.577393,501.867554 
	C522.661072,503.880859 521.254761,505.794403 521.186890,512.147827 
	C521.129517,517.521851 523.047058,521.837708 526.986694,525.407227 
	C530.425232,528.522583 532.831543,532.290527 533.162964,537.029907 
	C533.744995,545.351196 532.474976,553.202515 527.846619,560.456726 
	C524.364868,565.913940 520.369080,571.146912 518.172852,577.321472 
	C517.091187,580.362366 514.696899,584.031982 517.012756,586.739380 
	C519.342529,589.462891 523.240540,587.613831 527.280396,586.776733 
M419.334473,493.791748 
	C418.121582,511.520569 421.352600,528.404724 430.155792,543.850159 
	C444.373016,568.794617 465.857605,583.714294 494.211792,588.592346 
	C496.911652,589.056824 499.646088,589.234558 501.065125,586.091492 
	C507.727112,571.335205 513.414612,556.198364 515.517883,540.090820 
	C516.694031,531.083496 511.373596,523.686218 504.127777,521.993835 
	C491.804718,519.115662 484.218750,522.127991 479.908142,531.629395 
	C478.864960,533.928772 478.495789,536.355103 478.258240,538.876770 
	C477.734436,544.436768 476.271606,549.729431 472.139404,553.821228 
	C469.085480,556.845276 466.990021,556.248230 465.948547,552.162231 
	C465.744476,551.361694 465.770782,550.505127 464.941101,550.019470 
	C458.858704,550.364441 457.551514,548.319153 460.101501,542.669434 
	C461.464630,539.649231 464.290131,537.032288 463.193695,533.105957 
	C462.462982,533.105957 461.950104,533.001160 461.498901,533.123596 
	C459.233185,533.738342 456.663300,536.222717 454.756958,533.378967 
	C452.790649,530.445923 455.212708,528.048828 457.196198,526.026428 
	C458.760956,524.430969 459.914429,522.916565 459.958679,520.454041 
	C460.072418,514.125488 463.379883,512.489563 469.077148,515.646179 
	C470.662781,516.524719 471.901886,518.505981 474.210175,517.723633 
	C474.396545,516.463867 473.588013,516.067749 473.020691,515.490479 
	C469.294403,511.698669 469.979279,507.905579 474.970245,505.914337 
	C477.418579,504.937622 480.093536,504.487946 482.697357,503.952423 
	C485.906250,503.292480 489.225403,502.988220 492.431122,500.017487 
	C486.597473,498.060486 480.888733,497.337341 476.161011,494.210632 
	C461.566650,484.558807 447.041779,474.893829 429.315369,471.572021 
	C424.407928,470.652435 422.903687,470.600006 421.908203,475.583984 
	C420.769623,481.284393 420.187683,487.095947 419.334473,493.791748 
M557.929688,639.512634 
	C558.569092,637.421997 560.555115,635.518005 558.839417,632.928894 
	C554.561157,632.754944 550.670105,634.337402 546.727112,635.511292 
	C537.610535,638.225525 528.369995,640.313354 518.886230,641.124756 
	C511.907532,641.721741 511.303772,642.155090 511.290100,649.256165 
	C511.243652,673.418335 511.243896,697.580688 511.298523,721.742737 
	C511.302429,723.467407 510.680542,725.403748 513.113647,728.088867 
	C528.136841,698.436951 542.889221,669.319519 557.929688,639.512634 
M503.666321,314.499603 
	C503.657379,305.519653 503.681366,296.539429 503.616028,287.559906 
	C503.599915,285.347382 503.905609,282.901764 501.593018,281.473663 
	C499.574890,282.162415 498.898773,283.777588 498.132416,285.189850 
	C483.860291,311.492065 470.868286,338.450500 457.231567,365.078796 
	C456.468353,366.569122 455.523102,368.249603 456.688934,369.751709 
	C458.044556,371.498322 459.800781,370.126465 461.260559,369.623291 
	C472.157745,365.867188 483.290863,363.255280 494.834076,362.725098 
	C502.319061,362.381317 503.667542,361.144073 503.689606,353.414642 
	C503.725677,340.776398 503.666504,328.137878 503.666321,314.499603 
M370.516327,489.018219 
	C367.230347,484.572754 363.549255,480.368744 360.934845,473.779602 
	C366.435822,477.793701 368.340088,483.395416 373.088409,486.182800 
	C375.320526,482.137177 374.473846,479.144989 371.583344,476.040100 
	C368.560883,472.793396 365.023468,469.731781 363.517914,464.708496 
	C368.373993,466.822327 369.260590,472.669434 374.290131,473.950439 
	C375.186615,472.004730 374.823181,470.357025 373.741211,469.049591 
	C368.432739,462.634705 363.512665,455.938019 358.851410,449.044769 
	C357.779724,447.459869 356.475464,447.539093 354.983429,448.471863 
	C349.979401,451.600189 345.032990,454.832642 339.911713,457.757721 
	C335.737000,460.142181 335.932526,462.872101 339.235077,465.434753 
	C344.732483,469.700470 348.504211,475.335938 352.516785,480.826721 
	C356.439484,486.194519 360.429718,491.513672 364.445679,496.812225 
	C366.299286,499.257904 368.785736,501.097260 371.666077,498.995575 
	C374.524292,496.909973 374.249542,493.840637 372.392792,490.984955 
	C372.035248,490.435028 371.506897,489.996094 370.516327,489.018219 
M529.414978,468.853455 
	C522.376038,467.229675 516.382202,470.380127 512.677673,475.327667 
	C508.700287,480.639923 505.213043,485.568451 498.308746,486.822174 
	C498.202942,486.841370 498.196930,487.410370 498.054688,488.255585 
	C509.734589,493.465942 522.316895,493.290833 534.709717,494.636841 
	C535.206421,487.636047 536.277344,486.577057 542.858582,485.698120 
	C545.084473,485.400818 548.805176,485.449402 548.063232,482.561981 
	C546.683228,477.191650 547.591919,472.134827 548.753723,466.946869 
	C545.754211,466.506989 544.690186,468.483521 543.198792,469.656769 
	C537.408081,474.211975 533.754089,480.917450 527.684753,485.166534 
	C525.851135,486.450317 524.089355,488.729889 521.000671,487.065521 
	C521.979248,483.667755 524.897522,482.394714 527.128357,480.593750 
	C530.976501,477.487122 532.600769,473.982086 529.414978,468.853455 
M525.366455,529.203186 
	C520.617065,524.906433 517.271301,519.946716 517.610046,513.169189 
	C517.670593,511.957458 517.218323,510.561066 515.831543,510.561829 
	C512.167114,510.563873 510.526154,513.656860 508.601471,516.015625 
	C506.869293,518.138489 509.059326,519.270874 510.440826,520.343201 
	C519.346069,527.255798 522.164856,536.015930 518.892883,546.860779 
	C515.439087,558.307983 512.982727,570.068848 507.952515,581.013611 
	C507.330841,582.366211 506.821350,583.796143 506.474243,585.241760 
	C506.147247,586.603760 506.307770,587.993225 507.973999,588.454834 
	C509.294250,588.820557 510.312012,588.130127 510.819214,586.984497 
	C511.556000,585.320251 512.391846,583.613770 512.663208,581.845093 
	C513.629944,575.544800 516.925415,570.405823 520.313293,565.231873 
	C522.586914,561.759583 524.967590,558.227295 526.448669,554.392883 
	C529.610168,546.208252 532.015076,537.815796 525.366455,529.203186 
M479.377106,524.928711 
	C481.640961,521.352905 484.257355,517.039856 488.626312,517.383301 
	C496.461792,517.999451 500.632294,513.480103 505.081177,508.488190 
	C507.043671,506.286194 509.685760,504.697205 511.971741,502.773376 
	C513.323730,501.635498 515.175232,500.864136 515.330017,498.359680 
	C512.383240,496.160461 509.532501,494.593353 506.885956,498.995819 
	C506.134766,500.245453 504.756226,500.514099 503.557495,501.047974 
	C497.318420,503.826843 490.825623,505.846497 484.256958,507.686981 
	C482.354614,508.220062 479.795563,508.032654 478.986267,510.648773 
	C485.778534,518.081360 481.688965,521.678589 469.051086,523.802307 
	C469.762085,525.987732 470.428070,528.165405 470.241058,530.510315 
	C470.111694,532.132446 471.415710,532.729309 472.773224,533.117371 
	C474.213287,533.528992 474.904633,532.679993 475.512939,531.588989 
	C476.644928,529.558777 477.811768,527.547974 479.377106,524.928711 
M392.309906,426.966705 
	C382.763458,445.768860 374.748932,494.158234 380.362946,499.098907 
	C380.362946,499.098907 394.997467,424.968231 394.990173,424.955750 
	C393.735809,424.619629 393.248566,425.596893 392.309906,426.966705 
M619.917664,434.759430 
	C626.342651,453.524933 631.773865,472.478210 631.706177,492.589539 
	C631.699341,494.616974 631.213257,498.385254 634.190430,498.250885 
	C637.441772,498.104126 636.890747,494.351257 636.503906,492.135345 
	C633.992310,477.746399 634.237122,462.915283 629.622070,448.869812 
	C627.126648,441.275024 624.384521,433.774170 620.852905,426.586761 
	C620.243958,425.347504 619.422119,424.060364 617.840637,424.634247 
	C616.033386,425.290100 616.750671,426.771515 617.223145,428.013275 
	C617.992981,430.036255 618.808716,432.041779 619.917664,434.759430 
M396.474060,577.431213 
	C399.132599,575.190247 397.284271,572.815735 396.445404,570.705139 
	C388.906250,551.736267 384.399658,532.091736 382.924316,511.737610 
	C382.773804,509.660675 382.867828,507.318695 379.917694,506.433929 
	C377.070007,509.160980 378.086456,512.694580 378.441895,515.718018 
	C380.419891,532.543457 383.376221,549.188721 389.658112,565.034973 
	C391.350372,569.303711 392.536346,573.880737 396.474060,577.431213 
M633.989319,530.292358 
	C634.440063,527.844482 635.036926,525.412781 635.309998,522.945251 
	C635.821533,518.322571 636.248291,513.684509 636.486328,509.041382 
	C636.559998,507.604797 636.101929,505.780914 634.327026,505.507874 
	C632.240723,505.186951 632.172974,507.159729 631.764221,508.529694 
	C631.529358,509.316925 631.440796,510.163574 631.396057,510.989441 
	C630.243591,532.230957 625.953552,552.794128 618.190979,572.622864 
	C617.584900,574.171021 616.269104,575.956421 619.233704,578.033875 
	C627.891663,563.383911 630.665161,547.156433 633.989319,530.292358 
M645.775879,509.705231 
	C644.645264,508.266632 643.947632,505.327667 641.469360,507.117096 
	C639.319458,508.669373 640.448975,511.010986 641.768066,512.898621 
	C647.010254,520.400513 652.196045,527.942627 657.518982,535.386780 
	C660.032043,538.901245 662.750916,542.274414 665.489929,545.618774 
	C666.760864,547.170593 668.548767,547.897949 670.345703,546.560303 
	C672.743958,544.774963 670.601257,543.267334 669.649841,541.973022 
	C661.865051,531.382019 653.992981,520.855103 645.775879,509.705231 
M519.474365,636.920105 
	C537.677612,635.698792 561.963867,627.726685 564.477600,621.922607 
	C561.847351,621.467651 559.511414,622.370422 557.275269,623.226379 
	C544.625854,628.068726 531.504333,630.749939 518.075073,632.160034 
	C515.912720,632.387085 512.415039,632.003113 512.719299,635.087280 
	C513.027100,638.207336 516.475342,636.589355 519.474365,636.920105 
M459.507172,623.201904 
	C456.767059,622.403931 454.377411,620.105103 451.164307,620.947754 
	C450.675415,623.857056 452.594879,624.840942 454.379822,625.600769 
	C469.209534,631.913818 484.685425,635.614441 500.765015,636.712463 
	C502.486664,636.830017 505.038849,637.256531 505.206818,634.773254 
	C505.375397,632.281738 502.830841,632.402161 501.088257,632.317810 
	C486.973358,631.634766 473.509827,628.008240 459.507172,623.201904 
M617.083984,649.698669 
	C611.249146,640.391479 604.163452,632.161072 596.119690,623.192200 
	C594.077271,635.922241 595.960388,640.232666 604.840149,645.476868 
	C607.704529,647.168518 610.555298,648.906860 613.544250,650.350586 
	C614.561951,650.842102 616.072205,652.633606 617.083984,649.698669 
M418.326385,624.403564 
	C410.224823,632.563843 403.265717,641.553467 398.073517,651.929810 
	C402.805908,649.928284 407.110596,647.480591 411.475922,645.146240 
	C418.245636,641.526062 421.647491,632.089355 418.326385,624.403564 
M400.872131,375.586823 
	C405.096161,378.586914 409.933777,379.643646 415.234375,380.087921 
	C410.314880,370.187927 403.504791,362.027130 395.577423,354.633881 
	C395.723663,361.991455 398.022400,368.490906 400.872131,375.586823 
M355.807190,492.634430 
	C348.498108,482.681213 341.189026,472.727997 333.919922,462.829254 
	C330.378967,464.293335 330.096008,466.063293 332.098145,468.734589 
	C338.956421,477.885162 345.656647,487.154144 352.502563,496.314148 
	C354.093811,498.443329 356.050415,500.240906 359.141754,498.830109 
	C359.487793,496.111847 357.473114,494.845551 355.807190,492.634430 
M612.069092,622.390991 
	C608.610535,621.543030 605.594727,618.413391 600.828613,620.264160 
	C607.190430,629.205994 613.433655,637.544006 620.725525,645.632324 
	C622.084900,640.785156 621.750305,639.248535 618.287231,629.305969 
	C617.246460,626.317932 615.785522,623.910217 612.069092,622.390991 
M608.312012,353.834229 
	C598.584290,359.650452 594.511108,367.871277 597.708557,376.757904 
	C604.988892,367.980286 612.589539,360.087097 617.997437,350.551147 
	C617.566711,350.121918 617.135986,349.692719 616.705200,349.263519 
	C614.113037,350.658630 611.520935,352.053772 608.312012,353.834229 
M555.140930,375.305084 
	C542.281189,369.943298 528.446106,368.979584 514.956665,366.485870 
	C512.882874,366.102539 510.272461,365.572876 508.663879,368.982697 
	C517.305298,373.019684 526.822449,369.139160 535.363647,372.908569 
	C543.618103,376.551575 552.497375,378.779022 562.040344,381.938904 
	C560.862610,377.403076 557.947083,376.937622 555.140930,375.305084 
M655.088440,517.434021 
	C660.983948,525.037354 666.756042,532.741150 672.831116,540.198303 
	C675.549988,543.535583 676.352905,543.286621 679.176697,539.833374 
	C675.295654,536.935120 672.235718,533.261780 669.361877,529.397339 
	C664.011780,522.203308 658.609802,515.047607 653.194580,507.902374 
	C651.932800,506.237396 650.751953,504.062561 647.561951,506.374420 
	C649.395081,510.216156 652.182800,513.446899 655.088440,517.434021 
M400.794922,351.326996 
	C406.415771,359.303864 412.046936,367.271729 419.473083,374.151550 
	C422.018250,369.498596 421.598694,362.573517 419.165955,359.734955 
	C416.202454,356.277069 403.259521,349.996155 400.794922,351.326996 
M476.585480,370.242645 
	C467.495636,371.907715 458.261292,373.231781 450.302338,381.063110 
	C454.717377,381.401642 457.428680,380.095062 460.190338,379.235657 
	C472.282959,375.472687 483.889008,369.701050 497.096771,370.615784 
	C498.865387,370.738312 500.779114,370.263214 501.255585,367.920013 
	C499.927185,365.552155 497.822540,366.505707 495.939392,366.570068 
	C489.584320,366.787262 483.643768,369.139435 476.585480,370.242645 
M695.149048,516.357727 
	C696.401794,517.904968 697.632751,519.470398 698.911072,520.996155 
	C704.060181,527.141541 706.970886,527.004150 712.148743,520.160950 
	C707.307434,516.915649 705.208984,510.871063 699.175964,507.047607 
	C700.480835,512.964722 706.630737,514.999756 706.326477,520.506042 
	C704.002991,520.598022 703.119873,519.016357 702.100098,517.800476 
	C699.330383,514.497864 696.596802,511.158813 693.996826,507.722351 
	C692.575439,505.843750 691.248596,504.341217 688.502197,506.056305 
	C688.855164,510.393646 692.743347,512.511597 695.149048,516.357727 
M644.172729,522.693298 
	C643.294983,522.216675 642.797424,520.625061 640.752014,522.131409 
	C647.633301,531.111389 651.356750,542.324280 660.118958,549.873596 
	C660.795837,549.406982 661.472778,548.940369 662.149658,548.473755 
	C657.177185,539.478149 650.315613,531.696960 644.172729,522.693298 
M665.886719,507.251984 
	C665.961365,507.879974 665.833130,508.638824 666.141113,509.116364 
	C670.827393,516.383423 676.104309,523.218811 681.609741,529.874817 
	C682.480042,530.926941 683.314087,532.410400 685.122437,532.083801 
	C685.998047,531.009094 685.363281,530.086670 684.825928,529.310608 
	C680.669739,523.308105 676.616821,517.222473 672.180176,511.432190 
	C670.718750,509.524902 669.612183,506.582458 665.886719,507.251984 
M676.810974,529.511169 
	C670.763306,521.759949 665.986328,512.951965 658.418701,506.464691 
	C658.691040,511.636047 673.517090,530.897278 678.134766,533.030701 
	C679.055115,531.658203 677.752319,530.958130 676.810974,529.511169 
M477.713989,487.336060 
	C476.797638,487.350433 475.706085,486.734406 475.135162,488.033539 
	C481.377655,493.923065 492.515228,496.785339 498.357971,493.657928 
	C492.029572,489.893829 484.960907,489.497955 477.713989,487.336060 
M363.467285,451.078003 
	C367.234985,455.844574 370.270203,461.238159 375.189911,465.770721 
	C375.531189,464.480133 375.892120,463.910828 375.739410,463.575226 
	C372.640564,456.765076 367.878357,451.066254 363.335327,445.226776 
	C362.785248,444.519745 361.904877,444.417786 361.133575,445.023926 
	C360.344299,445.644226 360.384491,446.500092 360.825500,447.248871 
	C361.491791,448.380249 362.292694,449.432343 363.467285,451.078003 
M694.820557,525.417236 
	C695.761047,526.105713 696.406921,527.499573 698.858093,526.621704 
	C692.294556,520.095154 689.312561,511.130341 681.021118,506.756836 
	C684.449768,513.625916 689.115723,519.504272 694.820557,525.417236 
M707.104309,509.542328 
	C709.414856,512.166992 711.703369,514.811523 714.049500,517.403870 
	C714.733459,518.159607 715.647705,518.767090 716.670105,518.018433 
	C717.675720,517.282043 717.540161,516.245972 716.859863,515.385925 
	C714.485474,512.384338 712.081604,509.404663 709.622498,506.472290 
	C708.839905,505.539032 707.698181,504.886200 706.528442,505.654358 
	C704.871582,506.742371 705.897888,507.927673 707.104309,509.542328 
M314.474060,489.036926 
	C312.387299,486.273804 310.887390,482.806671 306.458160,482.344849 
	C308.210510,488.565643 312.391449,492.507843 317.285126,496.988434 
	C317.984070,493.346954 316.402954,491.491455 314.474060,489.036926 
M635.145996,554.733337 
	C636.978149,557.100769 638.741394,559.526611 640.675720,561.807434 
	C641.472778,562.747314 642.697693,563.033020 643.796814,562.088989 
	C644.808899,561.219604 644.322266,560.227417 643.749390,559.405762 
	C642.034973,556.946594 640.526611,554.250671 638.409363,552.190186 
	C636.025391,549.869995 634.539124,550.755310 635.145996,554.733337 
M675.521362,510.602783 
	C679.192627,516.089600 683.298706,521.192932 688.290955,525.543152 
	C685.253418,520.152161 681.759277,515.142212 678.110962,510.247162 
	C677.554077,509.499817 676.396484,506.944336 675.521362,510.602783 
M336.171021,481.169220 
	C333.570007,481.073853 334.526184,482.875458 335.177490,483.644928 
	C338.351624,487.394867 340.526428,492.092865 345.993042,495.420410 
	C343.477783,489.404846 339.834839,485.614777 336.171021,481.169220 
M375.425812,443.049164 
	C374.012207,441.352692 374.064667,437.678833 369.555542,439.173279 
	C372.179962,443.357605 374.026245,447.558289 378.149872,450.854370 
	C379.480316,447.126465 376.704926,445.761749 375.425812,443.049164 
M369.508759,448.071777 
	C371.210785,450.405304 372.912811,452.738861 374.614838,455.072418 
	C374.913818,454.815826 375.212830,454.559265 375.511841,454.302704 
	C372.918274,450.322693 370.324738,446.342682 367.176544,441.511566 
	C366.340576,445.065796 368.287659,446.020142 369.508759,448.071777 
M303.298340,487.011627 
	C302.735657,486.793365 301.253998,485.703369 301.814087,487.026581 
	C303.299377,490.535431 305.582886,493.712402 310.046997,496.511047 
	C308.063263,492.342804 306.163330,489.687714 303.298340,487.011627 
M632.332336,565.683228 
	C629.376404,566.207947 629.516724,568.124390 629.979980,570.624878 
	C632.962097,569.979004 634.746826,569.087524 632.332336,565.683228 
z"/>
<path fill="#000000" opacity="1.000000" stroke="none" 
	d="
M753.384216,511.352478 
	C757.194519,508.906799 760.731384,506.705017 764.201416,504.402405 
	C772.185730,499.104156 772.244446,497.471771 764.446228,492.183472 
	C755.072144,485.826477 745.625488,479.576202 736.201294,473.293304 
	C711.109314,456.565094 685.989807,439.878021 660.942139,423.083649 
	C657.211304,420.582123 653.373108,418.955261 648.835388,419.191620 
	C642.340332,419.529968 637.910339,416.760773 634.790039,410.926117 
	C631.990967,405.691864 628.337769,400.914368 625.261353,396.239227 
	C625.889465,393.763550 628.380005,394.456573 629.375427,392.624115 
	C628.640991,388.268799 623.975281,385.676453 623.222351,380.725555 
	C625.547546,380.639862 626.379883,382.413605 627.372498,383.697144 
	C630.325989,387.516144 632.998779,391.562408 636.091614,395.260193 
	C638.451843,398.082062 641.272827,399.612671 644.346191,395.792358 
	C646.371033,393.275482 647.588806,394.891479 648.855713,396.792603 
	C651.849182,401.284882 653.323425,406.446869 655.446594,411.319977 
	C657.021729,414.935364 659.322449,417.751404 662.695129,419.950500 
	C698.271667,443.148041 733.433838,466.966827 768.373535,491.108337 
	C772.822754,494.182526 775.749695,493.526428 779.150330,490.093933 
	C784.777039,484.414520 790.532837,478.862366 796.267944,473.291290 
	C797.780396,471.822144 799.192810,469.977661 802.124817,470.873047 
	C802.551880,474.653381 799.467957,477.048340 798.040894,479.927704 
	C795.997253,484.051361 796.677612,486.321350 800.705322,488.232269 
	C805.072693,490.304260 809.427246,492.367157 814.030640,493.868835 
	C815.305054,494.284576 816.706726,494.737610 816.876892,496.313812 
	C817.096558,498.347565 815.339233,498.641418 813.976379,499.139618 
	C809.251282,500.866943 804.823181,503.103668 800.875549,506.272675 
	C798.603821,508.096405 798.320618,509.665649 800.410461,512.043457 
	C802.938416,514.919861 806.318237,517.286621 807.641113,521.561096 
	C803.739563,522.614258 801.057983,520.736206 798.493225,519.147522 
	C794.112061,516.433777 789.952026,513.364990 785.668274,510.491241 
	C782.407898,508.303955 779.089355,507.509338 775.410278,509.775696 
	C773.778503,510.780914 771.828064,511.542542 769.600281,510.210449 
	C770.041016,507.174683 775.116760,507.759064 774.389587,504.094574 
	C772.389343,502.944397 771.137817,504.299469 769.793274,505.167114 
	C745.441895,520.880676 721.097656,536.605225 696.747498,552.320740 
	C679.812439,563.250610 662.887573,574.196472 645.911377,585.062073 
	C643.721375,586.463745 642.061157,588.101807 641.000183,590.498474 
	C637.143005,599.212280 630.852905,606.437988 626.083191,614.600952 
	C625.296692,615.946960 624.620117,617.663513 622.249695,618.014771 
	C622.125488,612.330750 627.966309,609.196655 628.297302,603.590454 
	C624.357178,602.964966 621.387939,605.238525 618.097839,606.047913 
	C616.561768,606.425781 614.919678,608.043213 613.507019,606.430725 
	C611.912537,604.610474 613.769958,603.085510 614.591675,601.542664 
	C616.390686,598.164429 618.311340,594.845337 619.974976,591.401917 
	C623.692444,583.707214 627.529297,581.833801 635.900940,584.051147 
	C638.829224,584.826721 641.158691,583.425659 643.418701,582.164978 
	C656.379089,574.935486 668.619873,566.544373 681.065125,558.490723 
	C705.121460,542.923035 729.080872,527.205811 753.384216,511.352478 
z"/>
<path fill="#000000" opacity="1.000000" stroke="none" 
	d="
M721.353394,441.700684 
	C703.925232,432.579865 686.389954,424.471100 669.587646,414.946716 
	C665.467041,412.610962 661.016296,410.697632 658.503235,405.962738 
	C688.968628,421.548035 719.434021,437.133301 749.899414,452.718597 
	C749.505981,453.538361 749.112549,454.358124 748.719055,455.177887 
	C739.705139,450.745087 730.691223,446.312256 721.353394,441.700684 
z"/>
<path fill="#000000" opacity="1.000000" stroke="none" 
	d="
M326.333740,580.653809 
	C333.217285,584.065247 339.763367,587.314026 346.309448,590.562805 
	C346.001282,591.159363 345.693146,591.755920 345.385010,592.352417 
	C314.716400,579.104309 284.970398,563.951782 255.149246,548.954407 
	C255.512985,548.187134 255.876724,547.419922 256.240448,546.652710 
	C279.492401,557.932129 302.744354,569.211548 326.333740,580.653809 
z"/>
<path fill="#000000" opacity="1.000000" stroke="none" 
	d="
M439.180664,674.461914 
	C451.497406,691.643921 461.629028,709.825745 472.038483,727.835938 
	C476.037354,734.754639 480.011383,741.689209 483.868561,748.687134 
	C484.696625,750.189453 486.073700,751.669617 485.398376,753.964111 
	C482.931885,753.750916 482.377136,751.621521 481.460938,750.064636 
	C469.975891,730.547302 458.562805,710.987671 447.077118,691.470703 
	C444.207733,686.594971 441.100677,681.859253 438.213776,676.993408 
	C437.691742,676.113586 435.825165,674.387268 439.180664,674.461914 
z"/>
<path fill="#000000" opacity="1.000000" stroke="none" 
	d="
M435.616699,343.191772 
	C433.130981,343.373413 432.883270,343.256042 433.835083,341.247253 
	C436.182617,336.292542 438.491699,331.281464 441.327271,326.602783 
	C453.232849,306.958618 463.776215,286.598602 473.770172,265.937836 
	C474.563690,264.297333 475.534454,262.736237 476.512177,261.194885 
	C476.830444,260.693176 477.433289,260.371948 478.442261,260.298553 
	C467.389069,289.491028 450.216675,315.504242 435.616699,343.191772 
z"/>
<path fill="#000000" opacity="1.000000" stroke="none" 
	d="
M269.176331,538.947510 
	C285.882141,550.204468 303.511292,559.211365 320.639374,569.075867 
	C327.113800,572.804626 333.525726,576.643494 339.919281,580.509705 
	C341.259888,581.320374 342.980347,581.920898 343.228058,583.912109 
	C337.053253,583.525635 268.494324,543.128113 266.186188,538.544128 
	C267.172943,537.582092 268.012115,538.424438 269.176331,538.947510 
z"/>
<path fill="#000000" opacity="1.000000" stroke="none" 
	d="
M455.123779,290.096069 
	C443.594788,309.809448 432.736664,329.505280 419.959351,349.100037 
	C418.234161,345.286438 420.188354,343.388306 421.348785,341.461670 
	C430.778015,325.806091 440.324615,310.221161 449.748779,294.562531 
	C452.658325,289.728271 455.242126,284.698853 458.095154,279.829163 
	C459.142975,278.040619 459.854187,275.868927 463.476593,274.418335 
	C461.120941,280.567108 458.039459,285.093170 455.123779,290.096069 
z"/>
<path fill="#000000" opacity="1.000000" stroke="none" 
	d="
M463.941010,737.914307 
	C450.979675,711.758728 434.542603,687.877319 422.384003,661.696899 
	C422.963074,661.377441 423.542145,661.057983 424.121216,660.738464 
	C439.098053,687.891907 454.074860,715.045288 469.051697,742.198730 
	C465.775330,742.129089 465.284760,739.873169 463.941010,737.914307 
z"/>
<path fill="#000000" opacity="1.000000" stroke="none" 
	d="
M713.782654,448.296722 
	C705.600220,443.460052 697.734070,438.807373 688.732544,433.483154 
	C695.260010,432.964020 746.649292,463.068176 748.864807,469.138245 
	C737.276184,462.252411 725.687561,455.366547 713.782654,448.296722 
z"/>
<path fill="#000000" opacity="1.000000" stroke="none" 
	d="
M318.080933,628.918640 
	C309.658234,620.318115 301.480621,611.972473 293.302979,603.626892 
	C293.924957,603.022217 294.546936,602.417542 295.168945,601.812866 
	C310.084137,616.637939 324.999329,631.463074 339.914520,646.288147 
	C339.492371,646.736389 339.070221,647.184570 338.648041,647.632812 
	C330.850372,642.662659 325.027069,635.410889 318.080933,628.918640 
z"/>
<path fill="#000000" opacity="1.000000" stroke="none" 
	d="
M550.943481,281.984619 
	C546.363831,273.935150 541.956238,266.210052 537.548706,258.484955 
	C538.215942,258.121674 538.883179,257.758423 539.550415,257.395142 
	C550.979553,273.804047 559.485901,291.902527 569.036133,309.397552 
	C568.555298,309.742310 568.074402,310.087067 567.593567,310.431824 
	C565.778015,307.556915 563.911682,304.712524 562.160583,301.798889 
	C560.194946,298.528442 558.312500,295.207245 556.432800,291.886047 
	C554.634399,288.708405 552.885925,285.502472 550.943481,281.984619 
z"/>
<path fill="#000000" opacity="1.000000" stroke="none" 
	d="
M719.376892,548.413696 
	C711.879089,553.212036 704.710327,557.849915 697.541565,562.487793 
	C697.286865,562.066711 697.032166,561.645630 696.777466,561.224548 
	C715.825562,547.077576 736.320923,535.346802 757.261108,524.358704 
	C757.661987,525.031250 758.062866,525.703735 758.463745,526.376221 
	C745.544434,533.668579 732.625122,540.960876 719.376892,548.413696 
z"/>
<path fill="#000000" opacity="1.000000" stroke="none" 
	d="
M592.356750,325.590332 
	C587.300232,317.411133 580.589417,310.770569 576.299988,302.115723 
	C580.247681,303.224670 607.519836,338.952148 608.664917,345.059937 
	C601.666443,339.111572 597.779541,331.909607 592.356750,325.590332 
z"/>
<path fill="#000000" opacity="1.000000" stroke="none" 
	d="
M337.689270,600.375122 
	C331.347687,596.367126 324.655884,593.494751 319.908936,587.752686 
	C334.636261,594.528320 348.173370,603.362183 362.281189,611.262451 
	C353.227478,609.794556 345.819183,604.717346 337.689270,600.375122 
z"/>
<path fill="#000000" opacity="1.000000" stroke="none" 
	d="
M582.938721,673.982178 
	C587.379089,665.810852 589.798462,656.936646 596.202087,650.275940 
	C589.598145,667.922668 580.914429,684.516113 571.152039,700.587280 
	C571.895874,695.720276 574.858887,691.810547 576.816467,687.471680 
	C578.795776,683.084473 580.782288,678.700500 582.938721,673.982178 
z"/>
<path fill="#000000" opacity="1.000000" stroke="none" 
	d="
M565.513672,690.527771 
	C572.264954,679.648499 578.824097,669.082520 585.417847,658.538147 
	C585.636841,658.187988 586.206177,658.056885 586.694946,657.776245 
	C586.281616,662.575684 565.586304,697.242554 558.306702,704.297668 
	C560.646790,699.813293 562.986816,695.328918 565.513672,690.527771 
z"/>
<path fill="#000000" opacity="1.000000" stroke="none" 
	d="
M721.991089,539.990479 
	C725.826355,534.794189 732.037781,533.039307 737.162598,529.764648 
	C744.286682,525.212585 751.891846,521.411621 759.311829,517.326721 
	C760.296326,516.784729 761.328735,516.133667 762.578064,516.568481 
	C761.113708,520.359070 733.302490,536.657471 722.369141,539.963135 
	C721.999512,539.999390 721.991089,539.990479 721.991089,539.990479 
z"/>
<path fill="#000000" opacity="1.000000" stroke="none" 
	d="
M428.240509,692.785889 
	C430.576660,696.520081 432.712891,699.953491 434.849121,703.386902 
	C434.359375,703.690308 433.869659,703.993713 433.379913,704.297119 
	C424.519562,693.626099 416.787537,682.198242 409.977783,670.151855 
	C410.674896,669.667053 411.372040,669.182312 412.069153,668.697571 
	C417.392975,676.626770 422.716797,684.555969 428.240509,692.785889 
z"/>
<path fill="#000000" opacity="1.000000" stroke="none" 
	d="
M469.734314,294.710632 
	C466.102234,299.746613 463.381348,305.049805 458.400665,308.610565 
	C466.041748,295.442596 473.902252,282.443390 483.234070,270.371063 
	C480.076385,279.099976 475.053802,286.781219 469.734314,294.710632 
z"/>
<path fill="#000000" opacity="1.000000" stroke="none" 
	d="
M701.991943,402.800293 
	C697.197998,401.020996 694.512573,396.844177 691.129089,393.526794 
	C686.036987,388.534271 681.274536,383.203796 676.416992,377.975128 
	C675.350830,376.827545 674.024048,375.745789 673.951843,373.990509 
	C674.344604,373.833282 674.569153,373.686157 674.619080,373.731506 
	C684.499695,382.701263 694.638428,391.426941 701.991943,402.800293 
z"/>
<path fill="#000000" opacity="1.000000" stroke="none" 
	d="
M651.899414,598.887451 
	C658.566467,594.655151 664.856445,590.485413 672.535217,586.727417 
	C670.490479,591.328247 647.411621,606.082458 642.061523,606.839355 
	C644.243164,602.697327 648.305786,601.348450 651.899414,598.887451 
z"/>
<path fill="#000000" opacity="1.000000" stroke="none" 
	d="
M580.680054,245.315399 
	C576.131409,240.218933 571.823975,235.379837 567.561707,230.501358 
	C567.056763,229.923416 566.798645,229.129807 566.298157,228.197861 
	C570.492920,229.321060 585.111023,244.879883 588.640991,253.071350 
	C586.072266,250.567886 583.503540,248.064423 580.680054,245.315399 
z"/>
<path fill="#000000" opacity="1.000000" stroke="none" 
	d="
M604.305664,309.634155 
	C602.092407,306.016846 599.202698,303.136078 598.516541,298.809387 
	C602.878174,300.748962 612.456055,314.672028 612.851257,319.702759 
	C608.577087,317.440948 607.355713,312.964142 604.305664,309.634155 
z"/>
<path fill="#000000" opacity="1.000000" stroke="none" 
	d="
M688.020508,410.029907 
	C684.425232,408.016754 681.161011,406.169708 677.896729,404.322662 
	C678.113892,403.935455 678.331055,403.548218 678.548218,403.160980 
	C686.997437,407.157959 695.629822,410.787262 703.323242,416.332520 
	C698.192444,414.606750 693.017700,413.023132 688.020508,410.029907 
z"/>
<path fill="#000000" opacity="1.000000" stroke="none" 
	d="
M376.795868,762.397888 
	C377.631927,761.242004 378.420074,761.789185 378.961578,762.352905 
	C384.458923,768.074280 389.912201,773.838013 394.830109,780.136353 
	C388.024811,775.120789 381.939819,769.377380 376.795868,762.397888 
z"/>
<path fill="#000000" opacity="1.000000" stroke="none" 
	d="
M587.215149,760.223877 
	C589.375793,758.176025 591.286011,756.373413 593.599304,754.190369 
	C592.629578,758.755371 585.885254,766.218201 580.811707,768.565918 
	C581.547852,764.560547 584.947632,763.014709 587.215149,760.223877 
z"/>
<path fill="#000000" opacity="1.000000" stroke="none" 
	d="
M416.487488,666.368042 
	C413.700195,662.581055 410.744659,659.282654 409.621796,654.849854 
	C414.509064,658.211914 417.792358,662.776733 420.610291,667.992188 
	C418.306610,668.872925 417.711121,667.349609 416.487488,666.368042 
z"/>
<path fill="#000000" opacity="1.000000" stroke="none" 
	d="
M423.218262,320.364929 
	C424.316895,318.748993 424.800964,316.991669 427.615662,316.657623 
	C426.681305,321.487885 424.102234,324.889313 421.037689,329.049652 
	C419.395172,324.925720 422.210175,323.076904 423.218262,320.364929 
z"/>
<path fill="#000000" opacity="1.000000" stroke="none" 
	d="
M416.897949,700.485718 
	C418.468750,702.719543 420.107697,704.594666 420.289795,707.742004 
	C416.415833,706.601562 415.242065,703.744934 414.609650,700.822754 
	C414.319153,699.480347 415.719086,699.603088 416.897949,700.485718 
z"/>
<path fill="#000000" opacity="1.000000" stroke="none" 
	d="
M722.002380,540.003357 
	C719.765320,543.691040 715.945251,544.537842 712.186646,545.519348 
	C714.331543,542.215576 717.601746,540.780518 721.615601,539.969543 
	C721.991089,539.990479 721.999512,539.999390 722.002380,540.003357 
z"/>
<path fill="#000000" opacity="1.000000" stroke="none" 
	d="
M382.809265,618.314880 
	C381.979218,617.146729 381.271759,616.259460 381.496429,614.523560 
	C385.181427,616.785095 386.839722,620.025024 387.788391,623.995728 
	C386.198151,622.186890 384.607880,620.378052 382.809265,618.314880 
z"/>
<path fill="#000000" opacity="1.000000" stroke="none" 
	d="
M362.223877,488.734924 
	C356.620667,480.314423 349.514709,473.447662 344.641205,464.937744 
	C344.320984,464.378571 344.289856,463.648895 344.914673,463.125671 
	C348.316406,464.827911 368.636383,491.359528 370.144165,496.288788 
	C365.905334,495.372253 365.170013,491.105743 362.223877,488.734924 
z"/>
<path fill="#000000" opacity="1.000000" stroke="none" 
	d="
M349.987793,458.418091 
	C354.493469,461.832733 357.170715,465.663727 358.543488,470.954834 
	C354.007416,467.176575 351.859467,462.911865 349.987793,458.418091 
z"/>
</svg>